PathFileType	4	(X/Y/Z)	SUBJ51_3_walk_RCNL2025.trc
DataRate	CameraRate	NumFrames	NumMarkers	Units	OrigDataRate	OrigDataStartFrame	OrigNumFrames
100	100	12	25	mm	100	104	275
Frame#	Time	R_Shoulder			L_Shoulder			C7			J_Notch			R_Elbow			L_Elbow			R_Wrist			L_Wrist			R_Asis			L_Asis			Sacral			Thoracic			Sternum			R_Thigh_Lateral			R_Knee_Lateral			R_Shank_Lateral			R_Ankle_Lateral			R_Heel			R_Toe			L_Thigh_Lateral			L_Knee_Lateral			L_Shank_Lateral			L_Ankle_Lateral			L_Heel			L_Toe		
		X1	Y1	Z1	X2	Y2	Z2	X3	Y3	Z3	X4	Y4	Z4	X5	Y5	Z5	X6	Y6	Z6	X7	Y7	Z7	X8	Y8	Z8	X9	Y9	Z9	X10	Y10	Z10	X11	Y11	Z11	X12	Y12	Z12	X13	Y13	Z13	X14	Y14	Z14	X15	Y15	Z15	X16	Y16	Z16	X17	Y17	Z17	X18	Y18	Z18	X19	Y19	Z19	X20	Y20	Z20	X21	Y21	Z21	X22	Y22	Z22	X23	Y23	Z23	X24	Y24	Z24	X25	Y25	Z25
104	1.03000000	-1058.147827	1435.353394	443.251801	-1023.796753	1463.765503	-12.097943	-1110.220581	1574.979858	202.007156	-977.638306	1447.830444	210.671127	-1218.805298	1156.938965	497.861633	-1036.893799	1166.706177	-139.878586	-1227.436707	883.774994	475.461487	-855.334534	982.886871	-126.005238	-973.878845	1024.766968	333.038330	-998.175720	985.901917	96.814178	-1203.001099	1033.190186	226.363312	-1225.296631	1356.495850	195.133545	-935.834961	1219.869507	203.934326	-903.178833	644.072388	405.361084	-884.197021	523.138977	351.099152	-860.312866	302.167023	406.831329	-865.193176	70.982689	285.780701	-916.543701	65.082642	226.143326	-706.845093	49.404346	254.777618	-1131.922485	606.686951	-16.079206	-1170.274292	498.009827	31.036970	-1317.458008	379.583038	-8.848002	-1506.026367	192.771545	97.321236	-1521.326416	241.542374	153.869125	-1460.883057	46.048935	147.235519
105	1.04000000	-1041.462280	1436.936523	443.971924	-1009.008545	1466.044678	-11.340224	-1095.121094	1576.660156	203.226303	-962.169067	1449.754272	211.264694	-1200.126465	1157.696899	499.402740	-1026.014771	1167.904175	-137.643356	-1205.572205	884.536377	477.212845	-848.950073	979.538116	-124.483215	-958.422363	1027.510254	333.375427	-982.052673	987.487427	97.812294	-1187.311523	1034.514526	226.871521	-1209.884155	1358.081055	196.063232	-920.201660	1221.830078	204.102798	-890.989319	644.635132	405.489166	-873.331848	523.350769	350.883362	-853.049377	301.975464	406.331024	-863.902649	71.175018	285.175354	-915.872498	65.754272	226.097427	-705.935364	47.851974	254.373474	-1107.230835	606.354553	-17.917150	-1141.820557	497.364624	28.285048	-1290.727539	383.116821	-11.590199	-1483.029419	202.468277	94.735466	-1494.138550	252.567245	151.714951	-1450.510132	50.767651	145.728531
106	1.05000000	-1024.807373	1438.571411	444.586548	-994.465088	1468.192505	-10.692450	-1080.137451	1578.414429	204.327118	-946.859497	1451.690918	211.712006	-1181.358887	1158.489868	501.112061	-1015.526184	1168.977173	-135.502350	-1183.070801	885.354980	479.076096	-843.182159	976.014954	-122.865570	-943.191223	1030.052856	333.867462	-966.146851	989.133606	98.791550	-1171.851196	1035.959106	227.363083	-1194.661865	1359.803589	197.035690	-904.828613	1223.688232	204.195862	-880.009216	644.724915	405.533264	-863.597778	523.283203	350.597412	-847.368958	301.643890	405.628998	-862.910278	71.362274	284.402344	-915.407471	66.268272	225.848572	-705.239136	46.843407	253.900131	-1082.395020	606.426758	-19.581278	-1112.895508	497.111053	25.605896	-1262.559204	386.130127	-14.382078	-1458.539673	211.891876	92.441910	-1466.069092	262.848816	149.811279	-1436.721313	56.422829	143.621643
107	1.06000000	-1008.213989	1440.246338	445.087524	-980.200623	1470.203979	-10.179964	-1065.260498	1580.275146	205.319000	-931.732605	1453.678589	212.022781	-1162.508545	1159.303833	502.975677	-1005.418823	1169.914429	-133.463745	-1160.017639	886.227509	481.028488	-837.999054	972.362335	-121.186512	-928.144592	1032.337158	334.561218	-950.436340	990.852051	99.756104	-1156.596802	1037.579712	227.820892	-1179.619507	1361.664551	198.061829	-889.690491	1225.510254	204.233673	-869.929199	644.523010	405.473114	-854.833069	523.036682	350.264557	-843.102966	301.290283	404.841492	-862.173950	71.533768	283.561523	-915.096619	66.662315	225.474426	-704.698608	46.212078	253.423721	-1057.558838	607.035767	-21.050272	-1083.675659	497.414215	23.060047	-1233.213989	388.705139	-17.131361	-1432.756958	220.768631	90.573372	-1437.534546	272.086243	148.375687	-1419.026855	62.622627	140.876343
108	1.07000000	-991.715149	1441.976562	445.471252	-966.234375	1472.110107	-9.824511	-1050.483643	1582.266968	206.205780	-916.802490	1455.748047	212.211456	-1143.553467	1160.144653	504.972107	-995.674561	1170.740601	-131.515381	-1136.491089	887.173889	483.054840	-833.382324	968.634857	-119.481068	-913.257080	1034.320312	335.490356	-934.868530	992.688354	100.703033	-1141.521973	1039.425293	228.225098	-1164.741211	1363.660889	199.141129	-874.755615	1227.379517	204.222427	-860.499512	644.205139	405.334808	-846.886902	522.704224	349.925629	-840.015442	300.995239	404.096436	-861.647461	71.688980	282.744263	-914.896606	66.971733	225.060135	-704.272461	45.827206	252.988998	-1032.762207	608.260803	-22.330717	-1054.310547	498.395172	20.698759	-1203.014282	390.988312	-19.698360	-1405.850586	228.800858	89.219322	-1408.833252	280.002167	147.552917	-1397.151367	68.897484	137.524506
109	1.08000000	-975.344910	1443.797363	445.741058	-952.570801	1473.964355	-9.637185	-1035.803467	1584.400635	206.987961	-902.073181	1457.915527	212.294708	-1124.456909	1161.034912	507.073029	-986.267639	1171.510254	-129.630096	-1112.556702	888.234161	485.149338	-829.322205	964.896362	-117.774937	-898.518616	1035.990234	336.665314	-919.369019	994.708923	101.620804	-1126.599976	1041.520264	228.550385	-1150.008667	1365.781738	200.262589	-859.989197	1229.373779	204.157288	-851.559631	643.905090	405.174286	-839.645142	522.355774	349.634979	-837.829834	300.797852	403.504456	-861.282288	71.834724	282.022736	-914.769775	67.228920	224.680008	-703.931396	45.592415	252.629868	-1007.963623	610.123962	-23.452662	-1024.931763	500.113495	18.566732	-1172.315796	393.158508	-21.919580	-1377.931152	235.705627	88.401184	-1380.101196	286.364807	147.385803	-1371.096558	74.776108	133.675766
110	1.09000000	-959.133545	1445.752808	445.906708	-939.202881	1475.827637	-9.615507	-1021.219727	1586.670532	207.666107	-887.538208	1460.182129	212.288742	-1105.182861	1162.009399	509.244415	-977.164673	1172.294678	-127.773727	-1088.264893	889.462311	487.314423	-825.811279	961.216187	-116.081421	-883.933228	1037.377197	338.065918	-903.867981	996.976501	102.498405	-1111.804932	1043.854614	228.764160	-1135.402344	1368.006104	201.408188	-845.358948	1231.546753	204.030106	-843.036499	643.698181	405.057953	-833.036438	522.034790	349.452515	-836.263977	300.699341	403.140442	-861.030579	71.978539	281.441681	-914.686035	67.461258	224.388184	-703.653625	45.440498	252.363892	-983.092224	612.598938	-24.462221	-995.661743	502.560150	16.704121	-1141.460938	395.384186	-23.650555	-1349.046143	241.240570	88.072418	-1351.317383	291.000092	147.819809	-1341.126343	79.855202	129.499634
111	1.10000000	-943.102173	1447.884399	445.983124	-926.115723	1477.753418	-9.745664	-1006.733704	1589.056030	208.243042	-873.183228	1462.536255	212.207001	-1085.710815	1163.106201	511.449860	-968.323120	1173.163696	-125.913445	-1063.650635	890.917572	489.557404	-822.839355	957.662384	-114.404438	-869.515381	1038.557861	339.640350	-888.325134	999.527344	103.333832	-1097.113403	1046.389038	228.830185	-1120.902710	1370.301880	202.556702	-830.840454	1233.919067	203.838211	-834.920532	643.606689	405.045288	-827.020264	521.761536	349.431580	-835.052429	300.673553	403.033569	-860.850037	72.125130	281.017334	-914.624817	67.689217	224.216125	-703.422729	45.328300	252.193420	-958.100281	615.621704	-25.409714	-966.615417	505.661591	15.141920	-1110.728516	397.784729	-24.812943	-1319.206299	245.215134	88.137642	-1322.355469	293.798889	148.722870	-1307.686523	83.842079	125.185547
112	1.11000000	-927.259216	1450.220337	445.989746	-913.289307	1479.775635	-10.006227	-992.345337	1591.520996	208.725357	-858.991089	1464.955078	212.059189	-1066.043823	1164.356201	513.655029	-959.692749	1174.169556	-124.024361	-1038.736938	892.653748	491.885986	-820.387909	954.294434	-112.741360	-855.284119	1039.646484	341.309601	-872.737183	1002.359741	104.135727	-1082.504761	1049.062134	228.715363	-1106.490845	1372.627075	203.686630	-816.417480	1236.477783	203.590576	-827.226562	643.619873	405.174744	-821.568481	521.539795	349.606018	-833.966064	300.675934	403.165710	-860.707947	72.278122	280.744507	-914.573792	67.926666	224.173264	-703.227417	45.231781	252.114517	-932.990173	619.101929	-26.336578	-937.895020	509.294189	13.893560	-1080.306519	400.404114	-25.421131	-1288.419067	247.493210	88.478317	-1293.052612	294.717255	149.914352	-1271.303467	86.568863	120.902306
113	1.12000000	-911.599426	1452.766357	445.948822	-900.696899	1481.902100	-10.370084	-978.051758	1594.017334	209.124359	-844.941895	1467.406982	211.853378	-1046.210083	1165.775269	515.831787	-951.220520	1175.338745	-122.094131	-1013.540710	894.709503	494.304993	-818.424164	951.158508	-111.083153	-841.255798	1040.774902	342.975769	-857.130005	1005.434265	104.921028	-1067.962524	1051.796509	228.395905	-1092.149170	1374.932861	204.778931	-802.079529	1239.182739	203.308044	-819.962280	643.713806	405.457275	-816.649963	521.365417	349.981689	-832.831299	300.658936	403.483398	-860.582581	72.441704	280.606049	-914.526306	68.182114	224.250336	-703.060791	45.139591	252.118622	-907.810181	622.937805	-27.265703	-909.583984	513.306152	12.952909	-1050.289307	403.192535	-25.570717	-1256.702393	247.993530	88.978500	-1263.267212	293.766541	151.204193	-1232.500610	87.991562	116.774979
114	1.13000000	-896.106873	1455.500610	445.881378	-888.302917	1484.114868	-10.806878	-963.847595	1596.488647	209.454636	-831.007080	1469.853882	211.598709	-1026.258301	1167.360596	517.960938	-942.859253	1176.670166	-120.125046	-988.078400	897.101776	496.816528	-816.899261	948.284271	-109.413498	-827.437561	1042.066162	344.534821	-841.544006	1008.682800	105.711845	-1053.474243	1054.504517	227.862137	-1077.862305	1377.168091	205.819290	-787.817322	1241.973145	203.018417	-813.111877	643.864197	405.877197	-812.222656	521.233765	350.536438	-831.551880	300.597992	403.920654	-860.461792	72.618553	280.577332	-914.478760	68.459854	224.423325	-702.918701	45.046566	252.190063	-882.635315	627.029297	-28.198299	-881.746643	517.541687	12.301702	-1020.692444	406.002197	-25.396891	-1224.079224	246.692413	89.545013	-1232.908325	290.998993	152.432098	-1191.746216	88.176895	112.886101
115	1.14000000	-880.757568	1458.372803	445.802582	-876.063171	1486.372437	-11.287847	-949.726746	1598.874268	209.731689	-817.146973	1472.254883	211.305054	-1006.248962	1169.089478	520.034485	-934.573792	1178.139038	-118.132164	-962.370819	899.825714	499.420761	-815.749878	945.683807	-107.710346	-813.823425	1043.605225	345.892151	-826.020081	1012.019043	106.531517	-1039.031128	1057.099365	227.122147	-1063.618652	1379.283936	206.798706	-773.620422	1244.775269	202.750397	-806.631714	644.050903	406.397705	-808.234192	521.143066	351.227753	-830.130737	300.506256	404.417542	-860.340515	72.808228	280.625916	-914.426025	68.761391	224.655777	-702.798035	44.950020	252.308594	-857.553955	631.283447	-29.116383	-854.430969	521.859131	11.919303	-991.478516	408.611542	-25.028194	-1190.568726	243.624924	90.114876	-1201.929932	286.493347	153.490494	-1149.433716	87.273170	109.289604
